<svg xmlns="http://www.w3.org/2000/svg" xmlns:xlink="http://www.w3.org/1999/xlink" viewBox="0,0,256,256" width="30px" height="30px" fill-rule="nonzero"><g fill="#FFFFFF" fill-rule="nonzero" stroke="none" stroke-width="1" stroke-linecap="butt" stroke-linejoin="miter" stroke-miterlimit="10" stroke-dasharray="" stroke-dashoffset="0" font-family="none" font-weight="none" font-size="none" text-anchor="none" style="mix-blend-mode: normal"><g transform="scale(8.53333,8.53333)"><path d="M5,4c-0.55226,0.00006 -0.99994,0.44774 -1,1v16c0.00006,0.55226 0.44774,0.99994 1,1h6.99805v2h-4.16797c-0.254,0 -0.49859,0.09748 -0.68359,0.27148l-1.98828,1.86523c-0.331,0.309 -0.10925,0.86328 0.34375,0.86328h18.99609c0.453,0 0.67475,-0.55523 0.34375,-0.86523l-1.98828,-1.86523c-0.186,-0.173 -0.42959,-0.26953 -0.68359,-0.26953h-4.17187v-2h7.00195c0.55226,-0.00006 0.99994,-0.44774 1,-1v-16c-0.00006,-0.55226 -0.44774,-0.99994 -1,-1zM6,6h18v14h-18zM11.98047,8.99023c-0.2598,0.00774 -0.50638,0.11632 -0.6875,0.30273l-3,3c-0.39037,0.39053 -0.39037,1.02353 0,1.41406l3,3c0.25082,0.26124 0.62327,0.36648 0.97371,0.27512c0.35044,-0.09136 0.62411,-0.36503 0.71547,-0.71547c0.09136,-0.35044 -0.01388,-0.72289 -0.27512,-0.97371l-2.29297,-2.29297l2.29297,-2.29297c0.29576,-0.28749 0.38469,-0.72707 0.22393,-1.10691c-0.16075,-0.37985 -0.53821,-0.62204 -0.9505,-0.60988zM17.99023,8.99023c-0.40692,0.00011 -0.77321,0.24676 -0.92633,0.62377c-0.15312,0.37701 -0.06255,0.80921 0.22907,1.09303l2.29297,2.29297l-2.29297,2.29297c-0.26124,0.25082 -0.36648,0.62327 -0.27512,0.97371c0.09136,0.35044 0.36503,0.62411 0.71547,0.71547c0.35044,0.09136 0.72289,-0.01388 0.97371,-0.27512l3,-3c0.39037,-0.39053 0.39037,-1.02353 0,-1.41406l-3,-3c-0.18827,-0.19353 -0.4468,-0.30272 -0.7168,-0.30273z"></path></g></g></svg>